<svg xmlns="http://www.w3.org/2000/svg" viewBox="0 0 400 500" preserveAspectRatio="xMidYMid slice">
  <defs>
    <pattern id="grain2" x="0" y="0" width="100" height="100" patternUnits="userSpaceOnUse">
      <rect width="100" height="100" fill="#F4EEE2"/>
      <circle cx="20" cy="30" r="0.5" fill="#5C4032" opacity="0.15"/>
      <circle cx="60" cy="50" r="0.5" fill="#5C4032" opacity="0.12"/>
      <circle cx="40" cy="80" r="0.5" fill="#5C4032" opacity="0.18"/>
      <circle cx="85" cy="20" r="0.5" fill="#5C4032" opacity="0.13"/>
      <circle cx="10" cy="65" r="0.5" fill="#5C4032" opacity="0.16"/>
    </pattern>
  </defs>
  <rect width="400" height="500" fill="url(#grain2)"/>
  <g transform="translate(200, 220)" opacity="0.55">
    <ellipse rx="130" ry="100" fill="none" stroke="#7BA428" stroke-width="1.5" stroke-dasharray="3 4"/>
    <ellipse rx="115" ry="85" fill="#FBF8F1"/>
    <g fill="#E8D5B7" stroke="#C4A77D" stroke-width="0.8">
      <ellipse cx="-50" cy="-30" rx="14" ry="11"/>
      <ellipse cx="-15" cy="-40" rx="14" ry="11"/>
      <ellipse cx="25" cy="-35" rx="14" ry="11"/>
      <ellipse cx="60" cy="-25" rx="14" ry="11"/>
      <ellipse cx="-65" cy="0" rx="14" ry="11"/>
      <ellipse cx="-30" cy="-5" rx="14" ry="11"/>
      <ellipse cx="5" cy="-10" rx="14" ry="11"/>
      <ellipse cx="40" cy="-5" rx="14" ry="11"/>
      <ellipse cx="75" cy="5" rx="14" ry="11"/>
      <ellipse cx="-50" cy="25" rx="14" ry="11"/>
      <ellipse cx="-15" cy="20" rx="14" ry="11"/>
      <ellipse cx="20" cy="25" rx="14" ry="11"/>
      <ellipse cx="55" cy="30" rx="14" ry="11"/>
      <ellipse cx="-30" cy="50" rx="14" ry="11"/>
      <ellipse cx="5" cy="55" rx="14" ry="11"/>
      <ellipse cx="40" cy="50" rx="14" ry="11"/>
    </g>
    <g fill="#7BA428" opacity="0.7">
      <ellipse cx="-20" cy="-20" rx="3" ry="1.5" transform="rotate(20 -20 -20)"/>
      <ellipse cx="35" cy="15" rx="3" ry="1.5" transform="rotate(-30 35 15)"/>
      <ellipse cx="-45" cy="35" rx="3" ry="1.5" transform="rotate(45 -45 35)"/>
      <ellipse cx="65" cy="-15" rx="3" ry="1.5"/>
    </g>
  </g>
  <text x="200" y="400" text-anchor="middle" font-family="Georgia, serif" font-style="italic" font-size="16" fill="#5C4032" opacity="0.7">Gnocchi photo coming soon</text>
  <text x="200" y="425" text-anchor="middle" font-family="Georgia, serif" font-size="11" letter-spacing="3" fill="#5C7E1E" opacity="0.6">FROM ROBIN'S KITCHEN</text>
</svg>
